<svg viewBox="0 0 200 200" xmlns="http://www.w3.org/2000/svg">
    <defs>
        <filter id="shadow" x="-20%" y="-20%" width="140%" height="140%">
            <feDropShadow dx="0" dy="4" stdDeviation="4" flood-opacity="0.3" />
        </filter>
    </defs>

    <!-- Main Moon Shape -->
    <path d="M146.5,66.8c3.9,10.1,6.1,21.1,6.1,32.7c0,49.7-40.3,90-90,90c-11.6,0-22.6-2.2-32.7-6.1
    c12.2,31.4,42.8,53.7,78.5,53.7c46.6,0,84.3-37.8,84.3-84.3C192.6,109.6,170.4,79,146.5,66.8z" fill="white" filter="url(#shadow)" transform="scale(0.85) translate(20, 0)" />

    <!-- Z's for sleep -->
    <text x="130" y="85" font-family="Arial" font-size="24" font-weight="bold" fill="white" filter="url(#shadow)" transform="rotate(15, 130, 85)">z</text>
    <text x="150" y="70" font-family="Arial" font-size="20" font-weight="bold" fill="white" filter="url(#shadow)" transform="rotate(15, 150, 70)">z</text>
    <text x="165" y="55" font-family="Arial" font-size="16" font-weight="bold" fill="white" filter="url(#shadow)" transform="rotate(15, 165, 55)">z</text>
</svg>